<?xml version="1.0" encoding="UTF-8" standalone="no"?>
<!-- Created with Inkscape (http://www.inkscape.org/) -->

<svg
   width="2100"
   height="2970"
   viewBox="0 0 210 297"
   version="1.1"
   id="svg1"
   xml:space="preserve"
   inkscape:version="1.3.2 (091e20e, 2023-11-25)"
   sodipodi:docname="eventable.svg"
   xmlns:inkscape="http://www.inkscape.org/namespaces/inkscape"
   xmlns:sodipodi="http://sodipodi.sourceforge.net/DTD/sodipodi-0.dtd"
   xmlns="http://www.w3.org/2000/svg"
   xmlns:svg="http://www.w3.org/2000/svg"><sodipodi:namedview
     id="namedview1"
     pagecolor="#ffffff"
     bordercolor="#000000"
     borderopacity="0.25"
     inkscape:showpageshadow="2"
     inkscape:pageopacity="0.0"
     inkscape:pagecheckerboard="0"
     inkscape:deskcolor="#d1d1d1"
     inkscape:document-units="mm"
     inkscape:zoom="0.44501078"
     inkscape:cx="379.76609"
     inkscape:cy="355.04758"
     inkscape:window-width="1440"
     inkscape:window-height="767"
     inkscape:window-x="1920"
     inkscape:window-y="846"
     inkscape:window-maximized="0"
     inkscape:current-layer="layer1"
     showguides="true" /><defs
     id="defs1" /><g
     inkscape:label="Layer 1"
     inkscape:groupmode="layer"
     id="layer1"><path
       style="fill:#000000;stroke-width:0.844274"
       d="m 15.444116,142.98154 c -2.623692,-0.58418 -4.184476,-1.60175 -5.015774,-3.27013 -0.6637884,-1.33218 -0.6652774,-1.36186 -0.4960974,-9.88935 0,0 -0.092532,-3.28095 0.2753084,-4.86198 0.115685,-0.49723 0.597284,-1.41027 0.597284,-1.41027 1.74432,-3.25591 5.327959,-4.60191 11.642308,-4.37279 5.017357,0.18205 7.039725,1.05493 7.039725,3.03841 0,1.71156 -1.224155,3.52946 -2.672434,3.96862 -1.076658,0.32649 -2.368549,-0.0132 -3.758798,-0.98821 -2.419112,-1.69663 -3.677214,-1.98523 -5.122968,-1.17519 -1.416869,0.79386 -1.969027,3.05439 -1.01754,4.1658 0.979575,1.14422 3.474713,1.27058 5.136536,0.26012 1.496892,-0.91016 2.119429,-0.92617 3.123959,-0.0804 1.422155,1.1975 1.154833,2.63828 -0.735071,3.96182 -0.832886,0.58329 -0.952249,0.6031 -3.635414,0.6031 h -2.774253 l -0.656153,0.67407 c -0.893812,0.91824 -1.110254,2.18345 -0.550506,3.21798 1.129931,2.08832 3.962253,2.34919 6.003546,0.55294 1.645292,-1.44779 2.250395,-1.76848 3.336844,-1.76848 1.827895,0 3.37482,1.16839 3.669631,2.77169 0.457077,2.48576 -1.680018,4.12137 -6.173413,4.72476 -2.179762,0.29271 -6.651116,0.226 -8.216717,-0.12258 z M 30.419033,122.7407 c -29.95655624,-112.652656 -29.95655624,-112.652656 0,0 z"
       id="path2"
       sodipodi:nodetypes="cssasssscssscsscssssssccss" /><path
       style="fill:#000000;stroke-width:0.844274"
       d="m 189.56604,143.1505 c -2.97618,-0.60536 -4.44873,-1.48383 -5.50556,-3.2844 0,0 -0.55203,-0.92156 -0.65464,-1.42325 -0.19616,-0.95909 -0.12998,-5.78993 -0.12998,-5.78993 -0.004,-3.23858 0.0821,-6.4144 0.19116,-7.05738 0.49675,-2.92867 2.77574,-5.02352 6.45445,-5.93294 1.88425,-0.46581 7.80959,-0.5275 9.85428,-0.1026 1.65355,0.34362 2.87869,1.249 3.08989,2.28343 0.33246,1.62828 -1.30617,4.1654 -2.89771,4.48658 -1.01202,0.20423 -2.48151,-0.27658 -3.59909,-1.17761 -1.47774,-1.19139 -2.3973,-1.558 -3.59642,-1.43381 -2.68335,0.27789 -3.83494,3.76813 -1.64015,4.97091 1.15395,0.63238 3.15807,0.5543 4.34828,-0.16939 1.28373,-0.78057 1.94027,-0.891 2.81793,-0.474 1.55558,0.73912 1.69818,2.5896 0.29265,3.79762 -1.27237,1.09357 -2.0195,1.2924 -4.24762,1.13037 -1.64554,-0.11967 -2.17336,-0.082 -2.76109,0.1973 -0.95833,0.45533 -1.43365,1.35187 -1.43365,2.70411 0,0.96336 0.0978,1.19247 0.77396,1.81377 1.45673,1.33846 3.52346,1.26278 5.25347,-0.19237 2.40062,-2.01922 3.32591,-2.2771 5.13224,-1.4304 1.18195,0.55403 1.68355,1.31673 1.82147,2.7696 0.0968,1.01981 0.0296,1.31811 -0.43949,1.95014 -1.2014,1.61871 -3.89474,2.36683 -8.9295,2.48031 -1.79443,0.0405 -3.68206,-0.0118 -4.19475,-0.11606 z"
       id="path2-5-4-43"
       sodipodi:nodetypes="ssscsssssssssssscscsssscsscc" /><path
       style="fill:#000000;stroke-width:0.844274"
       d="m 169.21942,142.95535 c -1.7049,-0.34013 -2.85887,-0.93762 -3.64884,-1.88925 -1.09719,-1.3217 -1.15496,-1.67228 -1.16969,-7.09827 -0.008,-2.82639 -0.10551,-6.2485 -0.21742,-7.60467 -0.16952,-2.05452 -0.13935,-2.66842 0.18093,-3.68072 0.47404,-1.49822 1.50739,-2.76991 2.89657,-2.96616 0.58028,-0.082 1.22257,-0.19721 2.23094,0.042 1.55094,0.36799 2.49773,2.71101 2.00092,7.44541 -0.39375,3.75241 -0.40626,7.18915 -0.0298,8.19062 0.16213,0.43129 0.56616,1.0335 0.89784,1.33826 0.50645,0.46532 0.81266,0.55369 1.91127,0.55155 0.71952,-0.002 1.88499,-0.14479 2.58994,-0.31863 1.74744,-0.43096 2.70332,-0.40084 3.87933,0.12224 1.42819,0.63525 2.03067,1.62118 1.89681,3.10413 -0.12186,1.35018 -0.69636,2.06312 -2.164,2.68549 -0.80657,0.34203 -1.52873,0.39363 -5.35995,0.38297 -2.82389,-0.008 -4.95921,-0.11834 -5.89485,-0.30501 z"
       id="path2-5-4-56"
       sodipodi:nodetypes="sscssssssscsssscss" /><path
       style="fill:#000000;stroke-width:0.844274"
       d="m 147.80753,143.30838 c -2.27777,-0.19302 -3.39803,-0.5393 -4.49943,-1.39082 -1.54462,-1.19419 -1.85344,-3.42073 -1.25838,-9.07286 0.26186,-2.48726 0.25176,-3.25647 -0.0771,-5.88139 -0.2081,-1.66094 -0.31444,-3.41157 -0.23632,-3.89028 0.18297,-1.12102 0.86875,-2.14716 1.77245,-2.65212 1.39008,-0.77671 8.02064,-1.1643 11.06681,-0.64691 1.84369,0.31315 4.01669,1.25929 4.9305,2.14677 1.97207,1.91521 2.05888,5.24939 0.18979,7.29033 -0.3222,0.3518 -0.5858,0.8045 -0.5858,1.00598 0,0.20149 0.53282,0.84448 1.18403,1.42889 1.75622,1.57603 2.17198,2.43046 2.1841,4.48849 0.009,1.48535 -0.0819,1.87982 -0.68194,2.96868 -1.01569,1.843 -3.30304,3.35955 -5.94877,3.94414 -1.5139,0.3345 -5.60553,0.46738 -8.03992,0.2611 z m 5.77526,-4.57688 c 1.27107,-0.49762 1.86343,-1.27172 1.98248,-2.59068 0.1,-1.1075 0.0608,-1.2162 -0.68651,-1.90278 -1.44208,-1.32499 -4.48725,-1.56783 -5.699,-0.45446 -0.78122,0.7178 -0.79581,2.70795 -0.0276,3.76453 0.96131,1.32218 2.8129,1.81673 4.43061,1.18339 z m -1.18329,-9.99278 c 1.60124,-0.40861 2.24501,-1.82108 1.46317,-3.21025 -0.58517,-1.03972 -2.52087,-1.68791 -3.95776,-1.32531 -1.30093,0.32828 -1.92534,2.33706 -1.15301,3.70932 0.56223,0.99897 1.83816,1.28798 3.6476,0.82624 z"
       id="path2-5-4-52"
       sodipodi:nodetypes="sssssssssssccssssscsssssssss" /><path
       style="fill:#000000;stroke-width:0.844274"
       d="m 118.86864,142.8859 c -1.33443,-0.74222 -1.79014,-1.51984 -1.79194,-3.05773 -0.002,-1.60905 0.60996,-3.30932 1.96286,-5.4545 1.67148,-2.65031 2.44092,-4.41994 3.29856,-7.58634 0.95012,-3.50782 1.87264,-5.39969 3.07879,-6.31387 2.70632,-2.05119 6.48849,-1.08997 7.99116,2.03093 0.22681,0.47107 0.84072,2.28986 1.36424,4.04176 0.65762,2.20066 1.39089,4.02082 2.37213,5.88832 0.78114,1.48668 1.71874,3.35572 2.08357,4.15342 1.44755,3.16519 1.02996,5.53661 -1.12952,6.4143 -1.96929,0.80038 -3.60726,0.0806 -4.90418,-2.15513 -1.30124,-2.24316 -2.31982,-2.7283 -5.39328,-2.56873 -1.99033,0.10333 -2.64779,0.49572 -3.62409,2.16296 -0.87379,1.49218 -1.63625,2.26576 -2.60825,2.6463 -1.05405,0.41265 -1.67954,0.36593 -2.70005,-0.20169 z m 10.64504,-9.34403 c 0.85812,-0.29976 1.11493,-1.38074 0.72981,-3.07193 -0.619,-2.7183 -1.34356,-3.61574 -2.24815,-2.78459 -0.47709,0.43836 -1.35451,3.14567 -1.3615,4.20097 -0.01,1.44954 1.30545,2.20554 2.87984,1.65555 z"
       id="path2-5-4-1"
       sodipodi:nodetypes="scsssssscssssssssscs" /><path
       style="fill:#000000;stroke-width:0.844274"
       d="m 106.64322,143.38686 c -2.89745,-0.76338 -3.73785,-3.51522 -2.74459,-8.98704 0.60019,-3.30641 0.69662,-5.95384 0.25946,-7.12323 -0.41408,-1.10768 -1.21113,-1.4416 -3.44106,-1.4416 -1.476844,0 -1.938924,-0.0854 -2.552914,-0.47198 -1.5272,-0.96149 -1.89977,-2.45261 -1.01222,-4.05112 0.87831,-1.58185 1.19631,-1.62988 10.589904,-1.59937 7.68733,0.025 8.20327,0.051 8.94773,0.45151 2.30685,1.24101 2.39014,3.59696 0.18074,5.11259 -0.47601,0.32653 -1.12768,0.46009 -2.67658,0.54852 -2.61268,0.14919 -3.17321,0.45816 -3.51902,1.9397 -0.36123,1.5476 -0.31979,2.64711 0.2331,6.18507 0.57835,3.70092 0.53575,6.35538 -0.12178,7.58854 -0.72848,1.36622 -2.67557,2.23497 -4.14277,1.84841 z"
       id="path2-5-4-4"
       sodipodi:nodetypes="scsssscsccssss" /><path
       style="fill:#000000;stroke-width:0.844274"
       d="m 90.209006,142.93796 c -0.50788,-0.23945 -1.2228,-0.69876 -1.5887,-1.02067 -0.962729,-0.84699 -2.907375,-3.76148 -5.115746,-7.6671 -1.31204,-2.32041 -2.066615,-3.43186 -2.364973,-3.48349 -1.052344,-0.18208 -1.08733,1.11885 -0.142553,5.30083 0.383477,1.69742 0.697232,3.46542 0.697232,3.92887 0,1.87525 -1.363269,3.15562 -3.35992,3.15562 -3.569836,0 -4.812024,-2.99876 -3.726415,-8.99593 0.402612,-2.22413 0.401981,-2.4309 -0.01844,-6.04542 -0.409442,-3.52015 -0.412418,-3.82774 -0.0501,-5.17677 0.476772,-1.77515 1.043353,-2.52762 2.336198,-3.10266 1.232493,-0.5482 2.308826,-0.56072 3.553424,-0.0413 1.201304,0.50132 2.009293,1.4067 3.86199,4.32753 4.707603,7.42167 4.858143,7.63105 5.304293,7.3777 0.37589,-0.21345 0.31465,-1.10407 -0.23849,-3.46859 -0.29605,-1.26553 -0.50609,-2.98169 -0.52434,-4.28419 -0.0298,-2.13017 -0.0162,-2.18918 0.69432,-2.9977 1.789011,-2.03578 4.717961,-1.60253 5.944951,0.87936 0.5365,1.08522 0.570939,3.38062 0.0885,5.89719 -0.46662,2.43393 -0.440479,4.04517 0.12719,7.8401 0.28143,1.8814 0.415823,3.57813 0.32803,4.14153 -0.20917,1.34241 -0.968689,2.7183 -1.80122,3.26299 -1.00515,0.65762 -2.81093,0.73522 -4.005219,0.17213 z"
       id="path2-5-4-5"
       sodipodi:nodetypes="ssssssssssscssscssssssss" /><path
       style="fill:#000000;stroke-width:0.844274"
       d="m 59.563016,143.13394 c -2.076262,-0.42815 -3.599763,-1.1466 -4.558154,-2.14952 -1.498613,-1.56826 -1.514371,-1.66161 -1.468053,-8.69815 0.04157,-6.31517 0.159841,-7.45205 0.914933,-8.79481 1.037059,-1.84419 3.482752,-3.35115 6.342595,-3.90812 3.089192,-0.60164 8.865106,-0.23923 10.79402,0.67727 1.390458,0.66065 1.705103,2.27135 0.794653,4.06789 -0.690912,1.36335 -1.635394,2.01285 -2.926998,2.01285 -1.109931,0 -1.870292,-0.32085 -3.574631,-1.50838 -1.404504,-0.97862 -2.409509,-1.21659 -3.67114,-0.86928 -2.256114,0.62107 -2.817372,3.92683 -0.830306,4.89042 1.176395,0.57048 2.938791,0.46921 4.097709,-0.23546 0.540948,-0.32892 1.33758,-0.65082 1.770291,-0.71534 0.67446,-0.10057 0.904042,-0.01 1.608576,0.6378 0.622991,0.57241 0.821829,0.93394 0.821829,1.49427 0,0.95643 -0.815896,2.05655 -1.987743,2.68018 -0.852574,0.45373 -1.10238,0.48171 -3.179365,0.35607 -1.927624,-0.11661 -2.356976,-0.0805 -2.964469,0.24921 -1.570752,0.85253 -1.770058,3.22921 -0.378421,4.51262 1.526297,1.40759 3.505129,1.16519 5.694977,-0.69762 1.573005,-1.33809 2.421944,-1.6525 3.632564,-1.34537 1.8415,0.46718 3.131658,2.33143 2.768396,4.00027 -0.172187,0.79105 -1.305589,2.08349 -2.199602,2.50827 -1.958888,0.93074 -8.673353,1.41815 -11.501661,0.83493 z"
       id="path2-5-83"
       sodipodi:nodetypes="ssssssssssssscssssssssss" /><path
       style="fill:#000000;stroke-width:0.844274"
       d="m 40.480385,143.12121 c -2.370106,-0.68001 -3.233968,-1.87956 -4.816142,-6.68772 -1.174138,-3.56812 -2.390516,-6.5884 -3.38825,-8.41303 -1.002797,-1.8339 -1.868074,-4.22387 -1.868074,-5.1598 0,-2.37463 2.092135,-3.82769 4.613124,-3.20397 2.161629,0.53481 3.361354,2.28422 4.339926,6.32837 1.791291,7.40286 1.862641,7.60128 2.733322,7.60128 0.694856,0 0.840955,-0.49765 2.277524,-7.75792 0.519902,-2.62753 1.418562,-4.6583 2.395699,-5.41375 2.86564,-2.21551 6.632123,-0.0464 6.169731,3.55311 -0.06926,0.53923 -0.747532,2.32178 -1.507249,3.96123 -1.354166,2.92226 -2.195117,5.12287 -3.430205,8.97621 -0.932341,2.90881 -2.018015,4.85064 -3.095601,5.53678 -1.5622,0.9947 -2.709985,1.17093 -4.423805,0.67921 z"
       id="path2-5-8"
       sodipodi:nodetypes="ccssssssssssssss" /></g></svg>
