<?xml version="1.0" encoding="UTF-8" standalone="no"?>
<!-- Created with Inkscape (http://www.inkscape.org/) -->

<svg
   width="1318.322"
   height="1841.9222"
   viewBox="0 0 348.80602 487.34194"
   version="1.1"
   id="svg1"
   xml:space="preserve"
   xmlns="http://www.w3.org/2000/svg"
   xmlns:svg="http://www.w3.org/2000/svg"><defs
     id="defs1" /><g
     id="layer6"
     transform="translate(455.50133,735.86149)"><g
       id="g663"
       transform="translate(169.25968,751.08982)"><path
         fill-rule="evenodd"
         fill="#773523"
         fill-opacity="1"
         d="m -510.10632,-1271.6722 c -104.3915,110.8843 -45.222,233.6851 56.9712,233.6272 90.069,-0.051 111.5601,-86.6572 116.9841,-133.535 3.3207,-28.6897 -17.5627,-55.5842 -50.1489,-104.5828 l -123.8064,4.4906"
         id="path3-3-4"
         style="stroke-width:0.264583" /><path
         fill-rule="evenodd"
         fill="#c48145"
         fill-opacity="1"
         d="m -416.09132,-1274.7572 -69.2392,2.5083 c -59.8351,118.4818 -19.2888,192.7501 34.5726,192.6623 106.9815,-0.1716 54.2881,-142.4286 34.6666,-195.1706"
         id="path4-02-2"
         style="stroke-width:0.264583" /><path
         fill-rule="evenodd"
         fill="#b97641"
         fill-opacity="1"
         d="m -420.10242,-1274.6126 -3.9926,0.1437 c -1.3156,26.5451 0.2533,32.8745 0.2533,32.8745 0,0 2.3047,-16.1985 3.7393,-33.0182 z m -11.7616,0.4269 -3.6215,0.1292 c -0.8206,13.6529 0.2191,32.7101 0.2191,32.7101 0,0 1.971,-4.5847 2.927,-22.9887 0.187,-3.6143 0.3431,-6.9009 0.4754,-9.8506 z m -10.1358,0.3648 -2.4247,0.09 c 0.01,2.5404 0.023,4.1351 0.033,4.3077 0.5302,8.3158 1.6351,22.2322 1.6351,22.2322 0.155,-2.5559 0.4712,-14.4435 0.7565,-26.6299 z m -11.1373,0.4052 -3.1978,0.1157 c 0.1127,9.1633 0.3163,12.6132 0.3163,12.6132 0,0 2.3709,-1.0955 2.8174,-9.9012 0.043,-0.8671 0.063,-1.82 0.064,-2.8277 z m -11.0588,0.3989 -3.4644,0.1271 0.048,1.2124 c 1.0491,25.8206 1.6258,33.8006 1.6258,33.8006 0,0 2.4835,-1.7704 2.4474,-18.5272 -0.01,-4.5082 -0.275,-10.4035 -0.6563,-16.6129 z m -10.8531,0.3948 -0.2139,0.01 c -0.2522,2.5828 -0.8268,10.8458 0.1282,26.2837 1.1792,19.0614 1.8283,25.4827 1.8283,25.4827 0,0 2.0195,-1.5802 1.7497,-14.1604 -0.2408,-11.1973 -2.9073,-32.9541 -3.4923,-37.6133 z m -11.8669,3.5771 c -0.3638,0.7348 -0.74,1.4789 -1.0966,2.2117 0.6966,3.3176 1.1441,4.4979 1.1441,4.4979 0,0 0.055,-2.62 -0.047,-6.7096 z m -7.9716,17.3136 -0.3628,0.8393 c 0.3069,0.9518 0.4723,1.328 0.4723,1.328 0,0 -0.034,-0.7782 -0.1095,-2.1673 z m -6.3718,16.148 c -0.2707,0.7462 -0.5281,1.4872 -0.7885,2.2283 0.3049,1.3198 0.4888,2.0794 0.4888,2.0794 0,0 0.2915,-1.0635 0.2997,-4.3077 z m -5.982,18.6345 c -0.586,2.0908 -1.1472,4.1672 -1.664,6.2177 0.8723,5.0323 1.3157,7.0332 1.3157,7.0332 0,0 1.9358,-0.8392 1.3312,-7.2874 -0.1571,-1.6847 -0.5261,-3.7828 -0.9829,-5.9635 z m -5.4426,24.4419 c -0.1188,0.739 -0.2243,1.4666 -0.3338,2.1952 l 0.3555,1.2733 c 0,0 0.1323,-0.8733 -0.022,-3.4685 z m -2.3027,25.4941 c -0.058,4.3604 0.079,8.57 0.3835,12.6359 1.8303,8.015 2.62,10.9482 2.62,10.9482 0,0 1.6722,-1.1969 0.1229,-10.263 -0.6108,-3.5646 -1.8479,-8.5659 -3.1264,-13.3211 z m 10.8045,52.3141 c 0.2512,0.4909 0.5085,0.9725 0.7669,1.4531 -0.4382,-1.4004 -0.7276,-2.2872 -0.7276,-2.2872 0,0 -0.032,0.2667 -0.039,0.8341 z m 8.5887,13.2312 c 0.309,0.3793 0.6149,0.7648 0.9312,1.1348 0.3297,-0.4609 0.6583,-1.3342 0.5229,-2.9579 -0.2491,-3.0096 -2.3595,-8.6186 -2.3595,-8.6186 0,0 -0.7287,1.5895 0.045,5.9552 0.3617,2.0381 0.6521,3.5036 0.8599,4.4865 z m 8.6041,8.723 0.032,0.027 -0.02,-0.055 z m 5.6234,4.1496 c 0.2811,0.1819 0.5653,0.3535 0.8485,0.5292 -0.2976,-1.0387 -0.5364,-1.7591 -0.5364,-1.7591 0,0 -0.1881,0.3659 -0.3121,1.2299 z m 12.5119,6.0617 0.432,0.1467 c 0.2274,-1.0025 0.5054,-3.1326 0.246,-7.1251 -0.3969,-6.1319 -0.7751,-9.1871 -0.7751,-9.1871 0,0 -1.5286,0.9023 -1.4739,5.3734 0.044,3.514 1.1142,8.7209 1.571,10.7921 z m 39.3082,0.6449 c 0.2305,-0.055 0.4713,-0.1003 0.6987,-0.1561 0.3917,-1.1658 0.8805,-3.0985 1.264,-6.1391 0.7524,-5.9656 0.9477,-8.9225 0.9477,-8.9225 0,0 -1.6454,0.8837 -2.4153,5.239 -0.5581,3.1605 -0.5457,7.7184 -0.4951,9.9787 z m 10.9461,-3.6132 c 0.5901,-0.2594 1.172,-0.5261 1.7436,-0.801 0.3731,-3.1037 0.4041,-6.6776 0.4041,-6.6776 0,0 -1.1741,1.7642 -1.973,6.4399 z m 5.2751,-2.6645 c 0.6966,-0.3979 1.387,-0.8009 2.0506,-1.2247 1.4365,-7.2822 1.9771,-10.9978 1.9771,-10.9978 0,0 -1.7653,1.1514 -3.051,6.5764 -0.402,1.6939 -0.7245,3.6948 -0.9767,5.6461 z m 6.6074,-4.532 c 0.5054,-0.4124 0.9942,-0.8382 1.479,-1.2671 0.087,-1.2444 0.1033,-2.1611 0.1033,-2.1611 0,0 -0.8237,0.9343 -1.5823,3.4282 z m 7.5034,-7.6512 c 0.8361,-1.0687 1.6133,-2.1818 2.3647,-3.3166 0.1065,-0.3886 0.2119,-0.7979 0.3204,-1.2288 1.5875,-6.349 2.1828,-9.4589 2.1828,-9.4589 0,0 -1.8386,0.8785 -3.238,5.486 -0.7752,2.5466 -1.3095,5.9676 -1.6299,8.5183 z m 8.0295,-14.4456 c 1.8634,-4.8576 3.1967,-10.0852 4.0803,-15.5877 -0.1219,-0.2822 -0.2201,-0.3959 -0.2201,-0.3959 0,0 -1.3405,4.9744 -3.5657,14.6793 z m 5.3981,-38.8173 c -0.066,-2.2262 -0.1912,-4.4783 -0.3493,-6.7438 -1.0294,5.732 -1.6144,11.1477 -1.6144,11.1477 0,0 0.7731,-1.0687 1.9637,-4.4039 z m -1.8759,-21.1284 c -0.2728,-1.9513 -0.5694,-3.9088 -0.8919,-5.8674 -1.4045,7.551 -2.9734,16.028 -3.0034,16.3143 -0.4496,4.4917 -1.0418,11.991 -1.0418,11.991 0.5261,-2.0299 3.2122,-14.3423 4.9371,-22.4379 z m -4.5929,-24.5711 c -0.3339,-1.4521 -0.6749,-2.9022 -1.0274,-4.3501 -0.7958,6.599 -1.2516,11.4546 -1.2516,11.4546 0,0 0.8423,-1.6413 2.279,-7.1045 z m -4.6675,-18.2852 c -0.3018,-1.0852 -0.6118,-2.1642 -0.9188,-3.2391 -0.7327,2.6045 -1.6299,6.4296 -2.4712,11.7109 -1.8458,11.6283 -2.3068,15.936 -2.3068,15.936 0,0 2.0402,-1.0211 3.6887,-8.8449 0.8805,-4.1838 1.5637,-10.5441 2.0081,-15.5629 z m -6.1464,-20.2934 c -0.648,-2.0009 -1.3022,-3.974 -1.9502,-5.9087 -0.2326,1.6195 -0.4682,3.3394 -0.6987,5.1698 -2.2862,18.0692 -2.8546,24.107 -2.8546,24.107 0,0 2.2438,-1.5193 4.2127,-13.4152 0.4599,-2.7884 0.894,-6.2652 1.2908,-9.9529 z m -9.1312,-26.3344 c -0.6211,-1.7094 -1.2299,-3.3579 -1.8169,-4.9475 -0.6512,11.9115 0,15.4885 0,15.4885 0,0 0.9312,-4.3574 1.82,-10.541 z m -6.2011,133.4235 c 0,0 -1.7364,2.7047 -2.7069,9.7772 -0.9684,7.0724 -1.1379,9.7317 -1.1379,9.7317 0,0 1.9317,-0.6728 2.9817,-5.457 1.048,-4.7832 0.8631,-14.0519 0.8631,-14.0519 z m -9.6739,27.5508 c 0,0 -0.6108,-1.8645 -0.1561,-7.8652 0.4527,-6.0006 0.8207,-8.8997 0.8207,-8.8997 0,0 0.9363,3.7858 0.7854,8.0626 -0.1508,4.2767 -1.45,8.7023 -1.45,8.7023 z m -5.7754,4.5816 c 0,0 -1.0428,-2.62 -0.5746,-12.021 0.4713,-9.3999 0.9343,-14.211 0.9343,-14.211 0,0 1.8604,1.7808 1.7725,8.7209 -0.087,6.9392 -2.1322,17.5111 -2.1322,17.5111 z m 0.5375,4.1899 c 0,0 -1.0294,1.3219 -1.3953,5.0199 -0.3669,3.698 -0.3783,5.1697 -0.3783,5.1697 0,0 1.3106,-0.3927 1.8098,-2.9342 0.5033,-2.5404 -0.036,-7.2554 -0.036,-7.2554 z m 33.3664,-29.5723 c 0.092,-0.4248 1.264,1.173 0.492,6.4699 -0.1458,0.9963 -3.6484,16.9095 -4.1961,18.8567 0,0 0.2614,-4.8545 0.4868,-7.7246 0.026,-0.3504 3.1274,-17.1938 3.2173,-17.602 z m -20.5031,16.7876 c 0,0 -1.2909,2.6014 -2.2324,9.3886 -0.9395,6.7882 -1.1483,9.3234 -1.1483,9.3234 0,0 1.3891,-0.6614 2.2883,-5.2524 0.8991,-4.5909 1.0924,-13.4596 1.0924,-13.4596 z m 13.2033,-8.0512 c 0,0 -1.2733,1.5575 -2.1435,5.9459 -0.8682,4.3904 -1.0635,6.1278 -1.0635,6.1278 0,0 1.4521,-0.4568 2.3151,-3.4623 0.8599,-3.0055 0.8919,-8.6114 0.8919,-8.6114 z m -5.9748,-3.6194 c 0,0 -1.6743,3.4551 -3.0562,12.1419 -1.3839,8.6889 -1.727,11.8308 -1.727,11.8308 0,0 1.6247,-0.8423 2.8867,-6.688 1.2588,-5.8467 1.8965,-17.2847 1.8965,-17.2847 z m 3.6959,-84.9147 c 0,0 -2.3389,4.4472 -3.8303,15.8977 -1.4955,11.4505 -1.7859,15.596 -1.7859,15.596 0,0 2.4288,-0.9695 3.9336,-8.6279 1.5027,-7.6575 1.6826,-22.8658 1.6826,-22.8658 z m -13.16,44.019 c 0,0 -0.7327,-2.8453 0.01,-12.3631 0.7442,-9.5177 1.2806,-14.2813 1.2806,-14.2813 0,0 1.0769,6.1619 0.7648,12.9698 -0.3121,6.8068 -2.0557,13.6746 -2.0557,13.6746 z m -7.2708,7.0063 c 0,0 -1.262,-3.9409 -0.4889,-18.8505 0.77,-14.9107 1.4439,-22.8751 1.4439,-22.8751 0,0 2.3233,3.0561 2.0722,14.18 -0.2491,11.1239 -3.0272,27.5456 -3.0272,27.5456 z m 0.5695,6.413 c 0,0 -1.2754,1.9803 -1.7922,7.5841 -0.5157,5.6058 -0.5498,7.7959 -0.5498,7.7959 0,0 1.5823,-0.5344 2.2458,-4.3315 0.6646,-3.7972 0.096,-11.0485 0.096,-11.0485 z m 40.2528,2.7037 c 0,0 -1.5792,2.1332 -2.9734,7.9303 -1.3943,5.7981 -1.7808,8.0316 -1.7808,8.0316 0,0 1.6267,-0.5726 2.8783,-4.5031 1.2517,-3.9316 1.8759,-11.4588 1.8759,-11.4588 z m -5.4581,-4.6002 c 0,0 -1.5399,2.0133 -2.7678,7.6378 -1.2267,5.6265 -1.5285,7.8207 -1.5285,7.8207 0,0 1.6402,-0.5571 2.7802,-4.3687 1.143,-3.8117 1.5161,-11.0898 1.5161,-11.0898 z m -14.0622,4.5589 c 0,0 -1.5244,2.6768 -2.683,9.6738 -1.1586,6.9991 -1.4232,9.6708 -1.4232,9.6708 0,0 1.5793,-0.6811 2.6717,-5.4312 1.0904,-4.7491 1.4345,-13.9134 1.4345,-13.9134 z m -4.379,-22.2095 c 0,0 -1.7177,4.1207 -3.112,14.5686 -1.3942,10.448 -1.7198,14.1625 -1.7198,14.1625 0,0 1.7095,-0.9219 2.9694,-7.9179 1.264,-6.9949 1.8624,-20.8132 1.8624,-20.8132 z m 16.9116,-12.4499 c 0,0 -1.6981,2.5384 -3.0158,9.4217 -1.3198,6.8843 -1.6247,9.5818 -1.6247,9.5818 0,0 1.8128,-0.649 3.0458,-5.3392 1.233,-4.6901 1.5947,-13.6643 1.5947,-13.6643 z m -28.882,53.112 c 0,0 1.4584,-2.4432 2.5405,-11.4246 1.0821,-8.9814 1.3973,-13.5465 1.3973,-13.5465 0,0 -2.0639,1.3333 -3.1223,7.9313 -1.0552,6.596 -0.8155,17.0398 -0.8155,17.0398 z m 18.6294,1.3922 c 0,0 1.7126,-2.898 3.8479,-14.0457 2.1373,-11.1476 3.0344,-16.9974 3.0344,-16.9974 0,0 -2.2521,1.7736 -4.0907,10.0159 -1.8418,8.2414 -2.7916,21.0272 -2.7916,21.0272 z m 2.9053,-60.4377 c 0,0 -2.28,5.608 -4.3894,19.2371 -2.1084,13.6302 -2.6345,18.2852 -2.6345,18.2852 0,0 2.034,-1.2247 3.8571,-10.2402 1.8232,-9.0155 3.1668,-27.2821 3.1668,-27.2821 z m -19.7539,-46.1729 c 0,0 -1.7487,3.4551 -2.5425,12.9036 -0.7937,9.4486 -0.8785,12.9915 -0.8785,12.9915 0,0 2.0692,-0.7917 3.0221,-7.1572 0.9498,-6.3655 0.3989,-18.7379 0.3989,-18.7379 z m 5.0488,35.5545 c 0,0 1.9265,-3.7859 3.6401,-18.8774 1.7146,-15.0896 2.3079,-23.0643 2.3079,-23.0643 0,0 -2.7575,2.3575 -4.3584,13.5362 -1.603,11.1786 -1.5896,28.4055 -1.5896,28.4055 z m -48.8559,61.497 c 0,0 -1.2485,2.745 -0.8775,10.0727 0.3721,7.3267 0.7256,10.079 0.7256,10.079 0,0 1.8882,-0.7152 2.0257,-5.6451 0.1385,-4.9299 -1.8738,-14.5066 -1.8738,-14.5066 z m -4.623,28.3982 c 0,0 -1.0046,-1.9017 -1.7084,-8.0976 -0.7038,-6.1961 -0.9116,-9.1881 -0.9116,-9.1881 0,0 1.7229,3.8995 2.4102,8.3209 0.6883,4.4215 0.2098,8.9648 0.2098,8.9648 z m -5.0839,4.7398 c 0,0 -1.6299,-2.6882 -2.9828,-12.3827 -1.3529,-9.6955 -1.8397,-14.6658 -1.8397,-14.6658 0,0 2.2779,1.818 3.5698,8.9845 1.292,7.1665 1.2527,18.064 1.2527,18.064 z m 1.3632,4.2943 c 0,0 -0.7968,1.3415 -0.4506,5.1532 0.3452,3.8127 0.6408,5.333 0.6408,5.333 0,0 1.2629,-0.3669 1.2826,-2.9755 0.02,-2.6107 -1.4728,-7.5107 -1.4728,-7.5107 z m 28.9099,-30.4798 c 0.01,-0.432 1.5038,1.2 1.7477,6.718 0.044,1.0273 -0.5085,17.4315 -0.6977,19.4158 0,0 -0.679,-4.9867 -1.0004,-7.9561 -0.036,-0.3493 -0.061,-17.7456 -0.05,-18.1777 z m 5.335,31.872 c 0,0 -0.9808,1.4304 -1.2319,5.4043 -0.2501,3.9729 -0.2016,5.5531 -0.2016,5.5531 0,0 1.294,-0.4071 1.7126,-3.1264 0.4186,-2.7202 -0.2791,-7.831 -0.2791,-7.831 z m -5.3206,-3.0727 c 0,0 -0.9704,1.3922 -1.1182,5.2172 -0.1478,3.8241 -0.065,5.3403 -0.065,5.3403 0,0 1.3022,-0.3772 1.666,-2.9921 0.3638,-2.6138 -0.4827,-7.5654 -0.4827,-7.5654 z m -11.128,3.2701 c 0,0 -0.8805,1.7859 -0.7958,6.5805 0.085,4.7945 0.2491,6.6786 0.2491,6.6786 0,0 1.2599,-0.4888 1.4614,-3.7847 0.1995,-3.295 -0.9147,-9.4744 -0.9147,-9.4744 z m -6.9349,-14.7392 c 0,0 -0.8351,2.6976 -0.4775,9.6832 0.3586,6.9856 0.6273,9.589 0.6273,9.589 0,0 1.3023,-0.7183 1.3353,-5.4415 0.032,-4.7232 -1.4851,-13.8307 -1.4851,-13.8307 z m 12.1305,-8.2816 c 0,0 -1.017,1.6206 -1.0615,6.1412 -0.043,4.5206 0.09,6.2942 0.09,6.2942 0,0 1.4263,-0.4713 1.7374,-3.5616 0.3111,-3.0892 -0.7658,-8.8738 -0.7658,-8.8738 z m 11.5352,19.1078 c 0,0 1.1751,-1.8551 1.604,-8.387 0.4279,-6.5319 0.46,-9.7514 0.46,-9.7514 0,0 -1.7477,0.9374 -2.3162,5.6772 -0.5695,4.7387 0.2522,12.4612 0.2522,12.4612 z m -11.7471,17.4253 c 0,0 0.9829,-2.0774 1.0594,-9.6748 0.077,-7.5975 -0.071,-11.4732 -0.071,-11.4732 0,0 -1.6092,1.1823 -1.8883,6.7716 -0.278,5.5883 0.9002,14.3764 0.9002,14.3764 z m -6.7283,-40.3066 c 0,0 -1.0335,3.6092 -0.7772,12.5574 0.2584,8.9504 0.5158,12.1636 0.5158,12.1636 0,0 1.5265,-0.8454 1.698,-6.8585 0.1706,-6.012 -1.4366,-17.8625 -1.4366,-17.8625 z m -12.8953,-88.3976 c 0,0 -1.5245,4.6353 -0.8268,16.6604 0.6976,12.0262 1.2154,16.274 1.2154,16.274 0,0 2.372,-0.987 2.4195,-8.9969 0.048,-8.0098 -2.8081,-23.9375 -2.8081,-23.9375 z m -5.0147,45.9289 c 0,0 -1.3322,-2.8721 -2.4494,-12.8343 -1.1183,-9.9622 -1.4852,-14.8735 -1.4852,-14.8735 0,0 2.3492,6.4141 3.3703,13.5009 1.0211,7.088 0.5643,14.2069 0.5643,14.2069 z m -6.2043,7.2854 c 0,0 -2.1042,-4.0298 -4.2684,-19.5761 -2.1642,-15.5463 -3.0479,-23.9148 -3.0479,-23.9148 0,0 3.0293,3.1502 4.9888,14.8229 1.9586,11.6716 2.3275,28.668 2.3275,28.668 z m 1.8625,6.691 c 0,0 -0.9333,2.0847 -0.3669,7.8962 0.5674,5.8115 0.9663,8.106 0.9663,8.106 0,0 1.5555,-0.5344 1.4904,-4.4876 -0.066,-3.9543 -2.0898,-11.5146 -2.0898,-11.5146 z m 35.9719,-47.8007 c 0.012,-0.7038 1.9679,2.0237 2.2428,10.9864 0.051,1.6764 -0.7007,27.6749 -0.9436,30.7682 0,0 -0.8361,-7.8104 -1.2537,-12.4613 -0.047,-0.5405 -0.059,-28.5925 -0.046,-29.2933 z m 6.5784,50.7184 c 0,0 -1.233,2.1838 -1.5616,8.1876 -0.3297,6.0038 -0.2894,8.3168 -0.2894,8.3168 0,0 1.5658,-0.5602 2.1053,-4.6333 0.5364,-4.0731 -0.2543,-11.8711 -0.2543,-11.8711 z m -6.5939,-4.8421 c 0,0 -1.202,2.1167 -1.3859,7.9479 -0.184,5.8311 -0.085,8.1059 -0.085,8.1059 0,0 1.5947,-0.5343 2.0515,-4.5 0.4558,-3.9677 -0.5808,-11.5538 -0.5808,-11.5538 z m -13.7914,4.7429 c 0,0 -1.0531,2.7585 -0.894,10.0221 0.1602,7.2636 0.3948,10.017 0.3948,10.017 0,0 1.5317,-0.6853 1.7405,-5.6214 0.2088,-4.9372 -1.2413,-14.4177 -1.2413,-14.4177 z m -8.9472,-23.1407 c 0,0 -0.9819,4.348 -0.368,15.1887 0.6119,10.8407 1.0108,14.7495 1.0108,14.7495 0,0 1.5844,-0.9963 1.5389,-8.2558 -0.047,-7.2616 -2.1817,-21.6824 -2.1817,-21.6824 z m 15.2424,-12.8902 c 0,0 -1.2743,2.6024 -1.2929,9.7947 -0.018,7.1924 0.1633,9.9571 0.1633,9.9571 0,0 1.7818,-0.6512 2.1549,-5.5294 0.3731,-4.8772 -1.0253,-14.2224 -1.0253,-14.2224 z m -19.699,55.1728 c 0,0 1.0459,-2.5104 0.3927,-11.8359 -0.6532,-9.3255 -1.2154,-14.0777 -1.2154,-14.0777 0,0 -1.8945,1.3932 -1.6898,8.2414 0.2036,6.8481 2.5125,17.6722 2.5125,17.6722 z m 34.1757,-24.7891 c 0,0 1.4738,-2.7554 2.0846,-13.009 0.6088,-10.2537 0.6718,-15.4895 0.6718,-15.4895 0,0 -2.2169,1.5048 -2.9631,9.0185 -0.7462,7.5117 0.2067,19.48 0.2067,19.48 z m -14.5025,26.1906 c 0,0 1.2061,-2.9528 1.265,-14.5231 0.061,-11.5714 -0.1436,-17.6579 -0.1436,-17.6579 0,0 -2.0206,1.8366 -2.3234,10.4221 -0.3007,8.5835 1.202,21.7589 1.202,21.7589 z m -8.8449,-62.8396 c 0,0 -1.2702,5.9067 -0.7896,20.0949 0.4816,14.1894 0.8474,19.0025 0.8474,19.0025 0,0 1.8821,-1.2134 2.0123,-10.6154 0.1292,-9.402 -2.0701,-28.482 -2.0701,-28.482 z m -29.9579,-48.6275 c 0,0 -1.1183,3.6939 -0.051,13.655 1.0676,9.9591 1.6754,13.7108 1.6754,13.7108 0,0 2.0143,-0.8361 1.7342,-7.5489 -0.2801,-6.7117 -3.359,-19.8169 -3.359,-19.8169 z m 56.1092,6.4007 c 0,0 -1.6371,3.7331 -2.1135,13.8668 -0.4785,10.1327 -0.4424,13.9268 -0.4424,13.9268 0,0 2.0144,-0.8888 2.7575,-7.7091 0.7431,-6.8161 -0.2016,-20.0845 -0.2016,-20.0845 z m -8.6351,-8.6104 c 0,0 -1.5699,3.636 -1.8159,13.6292 -0.2439,9.9932 -0.1003,13.7718 -0.1003,13.7718 0,0 2.063,-0.7917 2.6635,-7.52 0.5994,-6.7303 -0.7473,-19.881 -0.7473,-19.881 z m -18.1126,7.8239 c 0,0 -1.356,4.7283 -0.988,16.9891 0.3689,12.2587 0.7327,16.7504 0.7327,16.7504 0,0 1.9524,-1.0687 2.1384,-9.2966 0.185,-8.2321 -1.8831,-24.4429 -1.8831,-24.4429 z m -16.9219,31.9008 c 0,0 1.2733,-3.9284 0.056,-19.8168 -1.2175,-15.8885 -2.1725,-24.3263 -2.1725,-24.3263 0,0 -2.4309,2.5456 -1.8635,14.3114 0.5695,11.7636 3.9801,29.8317 3.9801,29.8317 z m 25.3472,2.8557 c 0,0 1.5421,-4.5992 1.51,-24.2518 -0.033,-19.6536 -0.3545,-30.6235 -0.3545,-30.6235 0,0 -2.6634,3.3259 -2.9497,18.1581 -0.2873,14.8353 1.7942,36.7172 1.7942,36.7172 z m -38.071,76.8087 c -0.063,-0.4351 1.7766,1.1772 2.9962,6.4792 0.2294,1.0025 2.6551,16.89 2.8195,18.803 0,0 -1.5989,-4.8131 -2.4588,-7.6936 -0.1034,-0.3452 -3.2908,-17.1534 -3.3569,-17.5886 z m 10.789,27.2304 c 0,0 0.8475,-1.7694 0.098,-8.1029 -0.7493,-6.3334 -1.3147,-9.4443 -1.3147,-9.4443 0,0 -1.5875,0.8867 -1.2877,5.487 0.2997,4.6012 2.5042,12.0602 2.5042,12.0602 z m -22.6684,-95.7161 c -0.1033,-0.6522 2.3182,1.9234 4.2106,10.5513 0.3504,1.6009 4.2778,26.6671 4.5827,29.6385 0,0 -2.2283,-7.5189 -3.4872,-12.0303 -0.1426,-0.5126 -5.1965,-27.4794 -5.3061,-28.1595 z m 15.7313,48.8146 c 0,0 -0.8526,2.1301 -0.1012,7.9303 0.7513,5.8022 1.2133,8.0604 1.2133,8.0604 0,0 1.4811,-0.5787 1.2888,-4.5227 -0.1922,-3.9439 -2.4009,-11.468 -2.4009,-11.468 z m -7.5003,-4.6147 c 0,0 -0.8278,2.0319 0.036,7.6615 0.863,5.6286 1.3736,7.8197 1.3736,7.8197 0,0 1.5172,-0.5374 1.2444,-4.3615 -0.2719,-3.823 -2.6541,-11.1197 -2.6541,-11.1197 z m -13.0059,4.5847 c 0,0 -0.555,2.6913 0.9157,9.6914 1.4728,7.0022 2.2045,9.6862 2.2045,9.6862 0,0 1.3984,-0.7027 0.7235,-5.4601 -0.6749,-4.7573 -3.8437,-13.9175 -3.8437,-13.9175 z m -0.1437,-34.7968 c 0,0 -0.8071,2.5331 0.4651,9.4619 1.2733,6.9278 1.9451,9.6253 1.9451,9.6253 0,0 1.6568,-0.6553 1.1617,-5.3661 -0.4961,-4.7119 -3.5719,-13.7211 -3.5719,-13.7211 z m 19.9957,29.2984 c 0,0 1.0015,-2.621 -0.2274,-12.5315 -1.2288,-9.9105 -2.1001,-14.9159 -2.1001,-14.9159 0,0 -1.9647,1.4346 -1.3684,8.6868 0.5974,7.2523 3.6959,18.7606 3.6959,18.7606 z m -9.8485,25.3783 c 0,0 0.6605,-2.9 -1.3715,-14.0797 -2.0329,-11.1797 -3.329,-17.0377 -3.329,-17.0377 0,0 -1.6681,1.7807 -0.432,10.0386 1.2351,8.26 5.1325,21.0788 5.1325,21.0788 z m -1.4779,-101.354 c 0,0 -0.9664,3.7259 0.3617,13.4462 1.3281,9.7214 2.0361,13.314 2.0361,13.314 0,0 1.8882,-0.8651 1.4169,-7.4187 -0.4702,-6.5536 -3.8147,-19.3415 -3.8147,-19.3415"
         id="path5-0-3"
         style="stroke-width:0.264583" /><path
         fill-rule="evenodd"
         fill="#a04636"
         fill-opacity="1"
         d="m -436.72162,-1017.239 c 0,0 10.6392,-3.1265 9.4692,-8.0357 -1.172,-4.9093 -14.6482,-53.0521 15.661,-79.0856 30.3083,-26.0346 48.5666,-20.2561 51.2714,4.5175 2.7036,24.7727 -14.9387,86.9508 -44.326,96.2102 -29.3843,9.25726 -38.407,-0.3597 -38.407,-0.3597 0,0 -0.7803,-8.1731 0.6501,-10.9781 1.4304,-2.804 5.6813,-2.2686 5.6813,-2.2686"
         id="path6-0-8"
         style="stroke-width:0.264583" /><path
         fill-rule="evenodd"
         fill="#311212"
         fill-opacity="1"
         d="m -436.72162,-1017.239 0.093,-0.028 c -0.9767,4.8265 0.7772,12.0757 2.5156,17.0739 -6.4916,-1.1938 -8.94,-3.7993 -8.94,-3.7993 0,0 -0.7793,-8.1731 0.6501,-10.9781 1.4304,-2.805 5.6813,-2.2686 5.6813,-2.2686"
         id="path7-3-5"
         style="stroke-width:0.264583" /><path
         fill-rule="evenodd"
         fill="#a04636"
         fill-opacity="1"
         d="m -467.28722,-1017.2442 c 0,0 -10.6412,-3.1202 -9.4723,-8.0305 1.1679,-4.9103 14.6162,-53.0603 -15.7075,-79.0763 -30.3238,-26.017 -48.579,-20.2272 -51.2692,4.5475 -2.6903,24.7747 14.9882,86.9425 44.3807,96.1833 29.3925,9.24176 38.407,-0.3814 38.407,-0.3814 0,0 0.7761,-8.1731 -0.6563,-10.9771 -1.4315,-2.804 -5.6824,-2.2655 -5.6824,-2.2655"
         id="path8-3-2"
         style="stroke-width:0.264583" /><path
         fill-rule="evenodd"
         fill="#311212"
         fill-opacity="1"
         d="m -467.28722,-1017.2442 c 0,0 -1.1606,-0.3411 -2.6716,-0.9725 0.8278,4.5444 1.9461,12.4251 0.9911,17.8356 5.8053,-1.2599 8.0192,-3.6195 8.0192,-3.6195 0,0 0.7761,-8.1741 -0.6574,-10.9781 -1.4314,-2.804 -5.6813,-2.2655 -5.6813,-2.2655"
         id="path9-8-2"
         style="stroke-width:0.264583" /><path
         fill-rule="evenodd"
         fill="#773523"
         fill-opacity="1"
         d="m -427.85492,-1156.8367 c 58.9411,-15.3934 55.1862,-84.1943 60.9306,-79.9155 37.8829,28.2308 31.5071,102.1239 -27.4505,102.4247 -37.4096,0.1902 -45.0298,-11.6871 -45.0298,-11.6871 0,0 1.6174,-8.0616 4.1671,-10.326 2.5508,-2.2655 7.3826,-0.4961 7.3826,-0.4961"
         id="path10-8-6"
         style="stroke-width:0.264583" /><path
         fill-rule="evenodd"
         fill="#773523"
         fill-opacity="1"
         d="m -472.86002,-1156.8367 c -58.9431,-15.3934 -55.1883,-84.1943 -60.9316,-79.9155 -37.884,28.2308 -31.5072,102.1239 27.4484,102.4247 37.4096,0.1902 45.0309,-11.6871 45.0309,-11.6871 0,0 -1.6165,-8.0616 -4.1672,-10.326 -2.5508,-2.2655 -7.3805,-0.4961 -7.3805,-0.4961"
         id="path11-3-9"
         style="stroke-width:0.264583" /><path
         fill-rule="evenodd"
         fill="#a04636"
         fill-opacity="1"
         d="m -427.34752,-1162.8446 c 58.9411,-15.3934 55.1873,-84.1955 60.9317,-79.9146 37.883,28.2289 31.5061,102.1241 -27.4485,102.4248 -37.4116,0.1902 -45.0318,-11.6881 -45.0318,-11.6881 0,0 1.6164,-8.0605 4.1671,-10.326 2.5508,-2.2645 7.3815,-0.4961 7.3815,-0.4961"
         id="path12-21-3"
         style="stroke-width:0.264583" /><path
         fill-rule="evenodd"
         fill="#a04636"
         fill-opacity="1"
         d="m -472.35252,-1162.8446 c -58.9432,-15.3934 -55.1873,-84.1955 -60.9306,-79.9146 -37.884,28.2289 -31.5072,102.1241 27.4484,102.4248 37.4096,0.1902 45.0309,-11.6881 45.0309,-11.6881 0,0 -1.6175,-8.0605 -4.1672,-10.326 -2.5508,-2.2645 -7.3815,-0.4961 -7.3815,-0.4961"
         id="path13-0-4"
         style="stroke-width:0.264583" /><path
         fill-rule="evenodd"
         fill="#311212"
         fill-opacity="1"
         d="m -427.34752,-1162.8446 c 1.4842,-0.3876 2.9218,-0.8185 4.3264,-1.2723 l 0.016,0.01 -2.2087,14.5562 -2.128,4.6788 c -9.0723,-3.2856 -11.5538,-7.1479 -11.5538,-7.1479 0,0 1.6164,-8.0625 4.1671,-10.327 2.5508,-2.2645 7.3815,-0.4961 7.3815,-0.4961"
         id="path14-5-7"
         style="stroke-width:0.264583" /><path
         fill-rule="evenodd"
         fill="#311212"
         fill-opacity="1"
         d="m -472.35152,-1162.8446 c -1.3849,-0.3617 -2.7243,-0.7617 -4.0411,-1.1813 l 3.1657,19.4582 c 9.7824,-3.3455 12.4231,-7.4538 12.4231,-7.4538 0,0 -1.6165,-8.0626 -4.1672,-10.326 -2.5508,-2.2655 -7.3805,-0.4971 -7.3805,-0.4971"
         id="path15-51-2"
         style="stroke-width:0.264583" /><path
         fill-rule="evenodd"
         fill="#a04636"
         fill-opacity="1"
         d="m -393.25352,-1365.19 c 0,0 20.0081,-8.5586 31.2715,-1.849 11.2603,6.7097 19.6536,20.2252 20.653,26.0956 1.0005,5.8715 -26.542,13.2612 -40.1557,6.5247 -13.6126,-6.7366 -17.264,-12.792 -17.264,-12.792 l 5.4952,-17.9793"
         id="path16-4-1"
         style="stroke-width:0.264583" /><path
         fill-rule="evenodd"
         fill="#311212"
         fill-opacity="1"
         d="m -398.74872,-1347.2107 5.3929,-17.6423 c 5.0457,-1.6279 14.6544,-3.9057 20.8484,-0.215 8.7137,5.1914 15.2084,15.6476 15.9814,20.191 0.7752,4.5424 -20.5393,10.2629 -31.0751,5.0509 -5.7443,-2.8443 -9.1942,-5.5305 -11.1476,-7.3846"
         id="path17-4-1"
         style="stroke-width:0.264583" /><path
         fill-rule="evenodd"
         fill="#a04636"
         fill-opacity="1"
         d="m -502.38992,-1365.19 c 0,0 -20.0081,-8.5586 -31.2705,-1.849 -11.2623,6.7097 -19.6546,20.2252 -20.655,26.0956 -0.9995,5.8715 26.5451,13.2612 40.1577,6.5247 13.6116,-6.7366 17.262,-12.792 17.262,-12.792 l -5.4942,-17.9793"
         id="path18-78-1"
         style="stroke-width:0.264583" /><path
         fill-rule="evenodd"
         fill="#311212"
         fill-opacity="1"
         d="m -496.89572,-1347.2107 -5.3909,-17.6423 c -5.0436,-1.6279 -14.6544,-3.9057 -20.8483,-0.215 -8.7137,5.1914 -15.2084,15.6476 -15.9825,20.191 -0.7731,4.5424 20.5414,10.2629 31.0751,5.0509 5.7464,-2.8443 9.1963,-5.5305 11.1466,-7.3846"
         id="path19-8-2"
         style="stroke-width:0.264583" /><path
         fill-rule="evenodd"
         fill="#a04636"
         fill-opacity="1"
         d="m -430.09672,-1337.4666 c 0,0 -2.3595,-10.387 2.8371,-14.4456 5.1965,-4.0566 13.8875,-5.7609 17.3322,-5.3 3.4479,0.4579 4.2148,14.0757 -1.2877,19.1927 -5.5036,5.117 -9.3855,5.8291 -9.3855,5.8291 l -9.4961,-5.2762"
         id="path20-5-2"
         style="stroke-width:0.264583" /><path
         fill-rule="evenodd"
         fill="#000000"
         fill-opacity="1"
         d="m -420.60062,-1332.1904 -9.3152,-5.178 c -0.2966,-2.5373 -0.3917,-7.242 2.465,-9.4723 4.0193,-3.1409 10.7456,-4.4586 13.4121,-4.1042 2.6675,0.3577 3.2597,10.8934 -0.9974,14.8539 -2.3234,2.1591 -4.2726,3.3053 -5.5645,3.9006"
         id="path21-8-2"
         style="stroke-width:0.264583" /><path
         fill-rule="evenodd"
         fill="#a04636"
         fill-opacity="1"
         d="m -468.25872,-1337.4666 c 0,0 2.3606,-10.387 -2.835,-14.4456 -5.1965,-4.0566 -13.8875,-5.7609 -17.3353,-5.3 -3.4468,0.4579 -4.2127,14.0757 1.2908,19.1927 5.5026,5.117 9.3845,5.8291 9.3845,5.8291 l 9.495,-5.2762"
         id="path22-8-0"
         style="stroke-width:0.264583" /><path
         fill-rule="evenodd"
         fill="#000000"
         fill-opacity="1"
         d="m -477.75372,-1332.1904 9.3172,-5.178 c 0.2946,-2.5373 0.3907,-7.242 -2.467,-9.4723 -4.0204,-3.1409 -10.7456,-4.4586 -13.4121,-4.1042 -2.6675,0.3577 -3.2597,10.8934 0.9984,14.8539 2.3223,2.1591 4.2716,3.3053 5.5635,3.9006"
         id="path23-4-4"
         style="stroke-width:0.264583" /><path
         fill-rule="evenodd"
         fill="#a04636"
         fill-opacity="1"
         d="m -510.14352,-1229.6571 c -20.4266,-32.6699 3.9729,-62.5048 9.6511,-81.6478 5.7702,-19.4572 -8.0749,-22.1371 -8.0749,-45.2375 0,-19.5637 21.8942,-35.4232 59.3907,-35.4232 37.4953,0 59.3896,15.8595 59.3896,35.4232 0,23.1024 -13.8451,25.7782 -8.0749,45.2375 5.6751,19.143 36.2634,41.8786 9.649,81.6478 -18.7668,28.049 -100.398,34.4414 -121.9306,0"
         id="path24-3-6"
         style="stroke-width:0.264583" /><path
         fill-rule="evenodd"
         fill="#773523"
         fill-opacity="1"
         d="m -501.11662,-1219.822 c 6.3138,-21.0478 27.7812,-36.5415 53.2959,-36.5415 24.5619,0 45.3709,14.3588 52.525,34.2026 -23.6399,18.8226 -79.4639,22.81 -105.8209,2.3389"
         id="path25-1-9"
         style="stroke-width:0.264583" /><path
         fill-rule="evenodd"
         fill="#311212"
         fill-opacity="1"
         d="m -457.96682,-1226.0449 c 3.8468,0 6.966,-3.6359 6.966,-7.0807 0,-3.4416 -3.1192,-5.3971 -6.966,-5.3971 -3.8478,0 -6.967,1.9555 -6.967,5.3971 0,3.4448 3.1192,7.0807 6.967,7.0807"
         id="path26-2-6"
         style="stroke-width:0.264583" /><path
         fill-rule="evenodd"
         fill="#311212"
         fill-opacity="1"
         d="m -437.67662,-1226.0449 c 3.8499,0 6.9691,-3.6359 6.9691,-7.0807 0,-3.4416 -3.1192,-5.3971 -6.9691,-5.3971 -3.8478,0 -6.967,1.9555 -6.967,5.3971 0,3.4448 3.1192,7.0807 6.967,7.0807"
         id="path27-4-4"
         style="stroke-width:0.264583" /><path
         fill-rule="evenodd"
         fill="#311212"
         fill-opacity="1"
         d="m -467.14662,-1326.6445 c 3.3641,0 6.0895,3.7941 6.0895,8.4739 0,4.6808 -2.7254,8.4749 -6.0895,8.4749 -3.3631,0 -6.0896,-3.7941 -6.0896,-8.4749 0,-4.6798 2.7265,-8.4739 6.0896,-8.4739"
         id="path28-5-2"
         style="stroke-width:0.264583" /><path
         fill-rule="evenodd"
         fill="#ffffff"
         fill-opacity="1"
         d="m -464.30652,-1322.2975 c 1.0604,0 1.9193,0.8599 1.9193,1.9203 0,1.0614 -0.8589,1.9182 -1.9193,1.9182 -1.0604,0 -1.9182,-0.8568 -1.9182,-1.9182 0,-1.0604 0.8578,-1.9203 1.9182,-1.9203 z m -2.3998,4.4235 c 0.5291,0 0.9591,0.431 0.9591,0.9601 0,0.5292 -0.43,0.9581 -0.9591,0.9581 -0.5302,0 -0.9602,-0.4289 -0.9602,-0.9581 0,-0.5291 0.43,-0.9601 0.9602,-0.9601"
         id="path29-9-7"
         style="stroke-width:0.264583" /><path
         fill-rule="evenodd"
         fill="#311212"
         fill-opacity="1"
         d="m -431.20982,-1326.6445 c 3.3652,0 6.0906,3.7941 6.0906,8.4739 0,4.6808 -2.7254,8.4749 -6.0906,8.4749 -3.3631,0 -6.0885,-3.7941 -6.0885,-8.4749 0,-4.6798 2.7254,-8.4739 6.0885,-8.4739"
         id="path30-6-8"
         style="stroke-width:0.264583" /><path
         fill-rule="evenodd"
         fill="#ffffff"
         fill-opacity="1"
         d="m -428.15672,-1322.2975 c 1.0614,0 1.9182,0.8599 1.9182,1.9203 0,1.0614 -0.8568,1.9182 -1.9182,1.9182 -1.0615,0 -1.9183,-0.8568 -1.9183,-1.9182 0,-1.0604 0.8568,-1.9203 1.9183,-1.9203 z m -2.3999,4.4235 c 0.5292,0 0.9581,0.431 0.9581,0.9601 0,0.5292 -0.4289,0.9581 -0.9581,0.9581 -0.5292,0 -0.9602,-0.4289 -0.9602,-0.9581 0,-0.5291 0.431,-0.9601 0.9602,-0.9601"
         id="path31-4-2"
         style="stroke-width:0.264583" /><path
         fill-rule="evenodd"
         fill="#c48145"
         fill-opacity="1"
         d="m -495.47562,-1392.2354 c -4.9754,-2.3678 -9.2553,-4.7304 -11.6169,-6.5877 -6.2714,-4.9237 -6.4895,-7.1065 -6.536,-15.9545 -0.048,-8.8502 -1.1772,-23.3102 -3.7538,-23.7805 -2.5756,-0.4744 -9.711,7.1034 -9.7379,13.6364 -0.03,6.5329 1.7425,17.1927 -0.5995,18.3616 -1.9171,0.955 -5.5066,3.3208 -15.4212,-0.085 -1.1204,-1.1059 -2.2635,-4.5403 -0.7194,-14.8849 4.5579,-30.5335 -8.5938,-21.5191 -8.848,-18.2066 -2.8091,36.5497 -19.606,18.9787 -18.8671,12.4654 0.5251,-4.6147 8.5845,-21.8364 7.984,-30.2897 -0.6025,-8.4563 0.075,-8.4377 -3.144,-10.2898 -3.2184,-1.85 -7.4972,5.6617 -9.1953,13.6519 -1.697,7.9881 -8.5731,21.4261 -13.3811,12.3217 -4.8059,-9.1064 -11.2789,-32.9561 -13.0266,-39.2606 -1.7456,-6.3076 -6.4574,-8.4698 -8.9472,-1.4532 -21.2225,59.7669 -23.2461,103.8201 37.7269,115.0307 14.179,2.6087 32.6719,-3.8685 48.7185,-5.5459 32.3132,-3.3765 26.2692,0.9178 32.7359,6.1382 0.1716,0.024 25.4124,3.5853 18.4351,-9.1705 -4.9868,-5.7382 -11.869,-12.1182 -21.8064,-16.0973"
         id="path32-8-7"
         style="stroke-width:0.264583" /><path
         fill-rule="evenodd"
         fill="#561c1b"
         fill-opacity="1"
         d="m -579.40752,-1378.1515 c 0.01,0.01 3.8685,2.9735 14.7072,4.715 l 0.2025,-1.3022 c -10.511,-1.6878 -14.1169,-4.4608 -14.1283,-4.468 z m -25.986,-22.5371 c -0.01,-0.01 -3.4892,-2.9476 -4.8669,-8.4429 l -1.2764,0.3204 c 1.4821,5.9025 5.2721,9.1064 5.2834,9.1168 z m 20.6045,17.7426 c -0.026,-0.013 -9.7989,-4.6219 -13.7718,-9.0589 l -0.9808,0.8754 c 4.1506,4.6333 14.1666,9.3555 14.1965,9.3721 z m -29.6323,-26.8521 c -0.01,-0.017 -1.4697,-5.6121 -2.4919,-11.8907 l -1.2981,0.2087 c 1.0315,6.3211 2.5094,11.9755 2.5115,11.991 z m 13.2994,20.1218 c -0.023,-0.024 -7.7866,-7.5407 -10.1151,-13.0204 l -1.2103,0.5188 c 2.4329,5.7227 10.389,13.4245 10.4097,13.4483 l 0.9157,-0.9467"
         id="path33-7-4"
         style="stroke-width:0.264583" /><path
         fill-rule="evenodd"
         fill="#c48145"
         fill-opacity="1"
         d="m -405.24142,-1392.2354 c 4.9765,-2.3678 9.2553,-4.7304 11.618,-6.5877 6.2704,-4.9237 6.4905,-7.1065 6.535,-15.9545 0.048,-8.8502 1.1771,-23.3102 3.7548,-23.7805 2.5745,-0.4744 9.71,7.1034 9.7389,13.6364 0.029,6.5329 -1.7435,17.1927 0.5984,18.3616 1.9182,0.955 5.5056,3.3208 15.4223,-0.085 1.1194,-1.1059 2.2624,-4.5403 0.7173,-14.8849 -4.5558,-30.5335 8.5959,-21.5191 8.847,-18.2066 2.8133,36.5497 19.6091,18.9787 18.8702,12.4654 -0.5261,-4.6147 -8.5856,-21.8364 -7.9851,-30.2897 0.6036,-8.4563 -0.076,-8.4377 3.144,-10.2898 3.2195,-1.85 7.4983,5.6617 9.1943,13.6519 1.6981,7.9881 8.5752,21.4261 13.3821,12.3217 4.8049,-9.1064 11.2789,-32.9561 13.0256,-39.2606 1.7466,-6.3076 6.4585,-8.4698 8.9483,-1.4532 21.2224,59.7669 23.2461,103.8201 -37.7269,115.0307 -14.179,2.6087 -32.6709,-3.8685 -48.7175,-5.5459 -32.3143,-3.3765 -26.2712,0.9178 -32.737,6.1382 -0.1726,0.024 -25.4134,3.5853 -18.434,-9.1705 4.9847,-5.7382 11.867,-12.1182 21.8043,-16.0973"
         id="path34-5-4"
         style="stroke-width:0.264583" /><path
         fill-rule="evenodd"
         fill="#561c1b"
         fill-opacity="1"
         d="m -321.30742,-1378.1515 c -0.01,0.01 -3.8706,2.9735 -14.7082,4.715 l -0.2036,-1.3022 c 10.512,-1.6878 14.118,-4.4608 14.1283,-4.468 z m 25.9849,-22.5371 c 0.01,-0.01 3.4892,-2.9476 4.8659,-8.4429 l 1.2774,0.3204 c -1.4821,5.9025 -5.2699,9.1064 -5.2834,9.1168 z m -20.6065,17.7426 c 0.027,-0.013 9.801,-4.6219 13.7749,-9.0589 l 0.9787,0.8754 c -4.1485,4.6333 -14.1655,9.3555 -14.1944,9.3721 z m 29.6334,-26.8521 c 0.01,-0.017 1.4717,-5.6121 2.4928,-11.8907 l 1.2992,0.2087 c -1.0315,6.3211 -2.5105,11.9755 -2.5135,11.991 z m -13.2974,20.1218 c 0.021,-0.024 7.7866,-7.5407 10.1151,-13.0204 l 1.2093,0.5188 c -2.4319,5.7227 -10.388,13.4245 -10.4087,13.4483 l -0.9157,-0.9467"
         id="path35-7-6"
         style="stroke-width:0.264583" /></g></g></svg>
